<?xml version="1.0" encoding="UTF-8"?>
<svg id="Layer_1" data-name="Layer 1" xmlns="http://www.w3.org/2000/svg" xmlns:xlink="http://www.w3.org/1999/xlink" viewBox="0 0 202 175">
  <defs>
    <style>
      .cls-1 {
        fill: #003749;
      }

      .cls-1, .cls-2, .cls-3 {
        stroke-width: 0px;
      }

      .cls-2 {
        fill: url(#Nueva_muestra_de_degradado_4);
      }

      .cls-3 {
        fill: #fff;
      }
    </style>
    <linearGradient id="Nueva_muestra_de_degradado_4" data-name="Nueva muestra de degradado 4" x1="16.54" y1="87.5" x2="185.46" y2="87.5" gradientUnits="userSpaceOnUse">
      <stop offset="0" stop-color="#8c6c49"/>
      <stop offset="1" stop-color="#eac080"/>
    </linearGradient>
  </defs>
  <path class="cls-2" d="M101.04,171.92c-44.84.33-84.34-36.05-84.5-84.35C16.38,43.05,52.01,3.29,100.94,3.08c46.71-.2,84.75,37.94,84.52,84.72-.22,47.29-38.63,84.3-84.42,84.12ZM90.47,98.22c6.34,1.33,12.72,1.87,19.07.34,16.21-3.9,27.1-13.86,31.24-29.95,4.06-15.78-.43-29.66-12.25-40.98-1.87-1.79-4.15-3.14-6.24-4.7.04-3.37.12-6.74.1-10.11-.02-3.28-.06-3.3-3.27-4.01-10.62-2.33-21.28-2.79-32.01-.79-21.87,4.06-39.4,15.06-52.22,33.22-12.26,17.37-16.63,36.77-13.83,57.81,1.44,10.81,5.02,20.86,10.72,30.15.24.49.42,1.01.72,1.46,19.07,28.1,45.59,40.71,79.29,36.98,18.99-2.1,35.1-10.85,48.23-24.81,3.94-4.19,7.64-8.6,10.15-13.86,1.35-1.59,2.26-3.44,3.16-5.29,7.06-14.5,9.79-29.72,7.85-45.79-1.08-8.93-3.62-17.37-7.41-25.47-.28-.6-.34-1.53-1.45-1.6-1.02,4.09-1.94,8.18-3.07,12.21-4.45,15.97-11,31.04-19.75,45.14-4.75-2.09-9.47-4.23-14.66-5.13-3.61-.62-7.01-.15-9.92,1.95-5.89,4.25-12.43,6.41-19.6,7.05-8.29.74-16.18-.49-23.6-4.35,1.14-1.15,2.31-2.27,3.4-3.46,1.81-1.98,4.09-3.54,5.37-6Z"/>
  <path class="cls-3" d="M81.7,107.69c7.42,3.86,15.31,5.09,23.6,4.35,7.17-.64,13.71-2.8,19.6-7.05,2.91-2.1,6.31-2.57,9.92-1.95,5.19.9,9.91,3.04,14.66,5.13,8.65,5.19,15.55,12.11,20.67,20.81-2.51,5.26-6.21,9.67-10.15,13.86-13.13,13.96-29.24,22.71-48.23,24.81-33.7,3.72-60.22-8.88-79.29-36.98-.3-.44-.48-.97-.72-1.45.3-.45.61-.89.88-1.36,7.99-13.74,19.96-21.82,35.44-24.96,2.95-.6,5.54-.15,7.99,1.6,1.75,1.25,3.53,2.5,5.61,3.19Z"/>
  <path class="cls-3" d="M122.29,22.93c2.09,1.56,4.38,2.91,6.24,4.7,11.82,11.32,16.31,25.19,12.25,40.98-4.14,16.1-15.04,26.05-31.24,29.95-6.35,1.53-12.73.99-19.07-.34-.93-.29-1.87-.56-2.8-.88-14.99-5.17-27.6-18.87-27.84-38.32-.18-14.56,5.99-26.35,18.05-34.64,8.93-6.15,18.9-8.47,29.74-6.63,5.21.88,9.94,3.01,14.67,5.18Z"/>
  <path class="cls-1" d="M122.29,22.93c-4.73-2.18-9.46-4.3-14.67-5.18-10.84-1.84-20.81.48-29.74,6.63-12.05,8.3-18.23,20.09-18.05,34.64.24,19.44,12.85,33.14,27.84,38.32.92.32,1.86.59,2.8.88-1.27,2.46-3.55,4.02-5.36,6-1.09,1.19-2.27,2.31-3.4,3.46-2.08-.69-3.86-1.94-5.61-3.19-2.45-1.75-5.04-2.19-7.99-1.6-15.48,3.14-27.44,11.21-35.44,24.96-.27.47-.59.9-.88,1.36-5.7-9.29-9.29-19.34-10.72-30.15-2.8-21.04,1.57-40.44,13.83-57.81,12.82-18.16,30.35-29.16,52.22-33.22,10.73-1.99,21.39-1.54,32.01.79,3.21.71,3.25.73,3.27,4.01.02,3.37-.06,6.74-.1,10.11Z"/>
  <path class="cls-1" d="M170.16,128.98c-5.12-8.69-12.02-15.62-20.67-20.81,8.76-14.1,15.3-29.16,19.75-45.14,1.13-4.03,2.05-8.13,3.07-12.21,1.11.07,1.17,1,1.45,1.6,3.8,8.1,6.34,16.54,7.41,25.47,1.94,16.08-.79,31.29-7.85,45.79-.9,1.85-1.82,3.7-3.16,5.29Z"/>
</svg>